<svg width="40" height="40" viewBox="0 0 40 40" fill="none" xmlns="http://www.w3.org/2000/svg">
<path d="M29.7678 4.76777C30.7441 3.79146 30.7441 2.20854 29.7678 1.23223C28.7915 0.255922 27.2085 0.255922 26.2322 1.23223L29.7678 4.76777ZM26.2322 38.7678C27.2085 39.7441 28.7915 39.7441 29.7678 38.7678C30.7441 37.7915 30.7441 36.2085 29.7678 35.2322L26.2322 38.7678ZM26.2322 1.23223L12.7678 14.6967L16.3033 18.2322L29.7678 4.76777L26.2322 1.23223ZM12.7678 25.3033L26.2322 38.7678L29.7678 35.2322L16.3033 21.7678L12.7678 25.3033ZM12.7678 14.6967C9.83884 17.6256 9.83883 22.3744 12.7678 25.3033L16.3033 21.7678C15.327 20.7915 15.327 19.2085 16.3033 18.2322L12.7678 14.6967Z" fill="white"/>
</svg>
