<svg width="40" height="40" viewBox="0 0 40 40" fill="none" xmlns="http://www.w3.org/2000/svg">
<path d="M39 20C39 30.4934 30.4934 39 20 39C9.50659 39 1 30.4934 1 20C1 9.50659 9.50659 1 20 1C30.4934 1 39 9.50659 39 20ZM4.98906 20C4.98906 28.2903 11.7097 35.0109 20 35.0109C28.2903 35.0109 35.0109 28.2903 35.0109 20C35.0109 11.7097 28.2903 4.98906 20 4.98906C11.7097 4.98906 4.98906 11.7097 4.98906 20Z" fill="black"/>
<path d="M20 5.07135V34.9285" stroke="black" stroke-width="2.71429"/>
<path d="M34.9286 20H5.07141" stroke="black" stroke-width="2.71429"/>
<path d="M10.5 20C10.5 14.6131 14.1837 3.71429 14.1837 3.71429H25.8163C25.8163 3.71429 29.5 14.6131 29.5 20C29.5 25.3869 25.8163 36.2857 25.8163 36.2857H14.1837C14.1837 36.2857 10.5 25.3869 10.5 20Z" stroke="black" stroke-width="2.71429"/>
<path d="M20 10.5C25.3869 10.5 36.2857 14.1837 36.2857 14.1837L36.2857 25.8163C36.2857 25.8163 25.3869 29.5 20 29.5C14.6132 29.5 3.71431 25.8163 3.71431 25.8163L3.71431 14.1837C3.71431 14.1837 14.6132 10.5 20 10.5Z" stroke="black" stroke-width="2.71429"/>
</svg>
