<svg width="231" height="82" viewBox="0 0 231 82" fill="none" xmlns="http://www.w3.org/2000/svg">
<g clip-path="url(#clip0)">
<path d="M26.176 60.16C28.9493 60.16 31.5947 59.6267 34.112 58.56C36.6293 57.4507 38.7413 55.936 40.448 54.016L43.648 57.344C41.4293 59.648 38.784 61.4613 35.712 62.784C32.64 64.064 29.4187 64.704 26.048 64.704C22.8053 64.704 19.7547 64.1067 16.896 62.912C14.08 61.7173 11.6267 60.096 9.536 58.048C7.44533 55.9573 5.80267 53.504 4.608 50.688C3.41333 47.8293 2.816 44.8 2.816 41.6C2.816 38.4 3.41333 35.392 4.608 32.576C5.80267 29.7173 7.44533 27.264 9.536 25.216C11.6267 23.1253 14.08 21.4827 16.896 20.288C19.7547 19.0933 22.8053 18.496 26.048 18.496C29.504 18.496 32.768 19.1573 35.84 20.48C38.9547 21.76 41.6 23.552 43.776 25.856L40.512 29.312C38.7627 27.3493 36.5867 25.8133 33.984 24.704C31.424 23.5947 28.7787 23.04 26.048 23.04C23.488 23.04 21.0773 23.5307 18.816 24.512C16.5973 25.4507 14.6773 26.752 13.056 28.416C11.4347 30.0373 10.1547 32 9.216 34.304C8.27733 36.5653 7.808 38.9973 7.808 41.6C7.808 44.2027 8.27733 46.656 9.216 48.96C10.1547 51.2213 11.4347 53.184 13.056 54.848C14.72 56.4693 16.6613 57.7707 18.88 58.752C21.1413 59.6907 23.5733 60.16 26.176 60.16ZM52.5875 25.792C51.7342 25.792 50.9875 25.472 50.3475 24.832C49.7075 24.192 49.3875 23.4453 49.3875 22.592C49.3875 21.696 49.7075 20.9493 50.3475 20.352C50.9875 19.712 51.7342 19.392 52.5875 19.392C53.4835 19.392 54.2302 19.712 54.8275 20.352C55.4675 20.9493 55.7875 21.696 55.7875 22.592C55.7875 23.4453 55.4675 24.192 54.8275 24.832C54.2302 25.472 53.4835 25.792 52.5875 25.792ZM54.9555 31.936V64H50.2195V31.936H54.9555ZM67 56.832V35.968H60.088V31.936H67V23.808L71.672 22.592V31.936H81.336V35.968H71.672V55.616C71.672 57.3227 72.056 58.56 72.824 59.328C73.592 60.0533 74.8507 60.416 76.6 60.416C77.496 60.416 78.2853 60.352 78.968 60.224C79.6933 60.096 80.4613 59.8827 81.272 59.584V63.744C80.4613 64.0427 79.544 64.256 78.52 64.384C77.5387 64.512 76.5787 64.576 75.64 64.576C72.8667 64.576 70.7333 63.9147 69.24 62.592C67.7467 61.2693 67 59.3493 67 56.832ZM94.52 68.16L96.376 63.936L83.32 31.936H88.568L98.936 58.24L110.136 31.936H115.256L99.32 68.8C97.9547 71.872 96.44 74.0907 94.776 75.456C93.112 76.8213 91 77.504 88.44 77.504C87.8427 77.504 87.2667 77.4613 86.712 77.376C86.2 77.3333 85.7733 77.2693 85.432 77.184V72.896C85.8587 72.9813 86.264 73.0453 86.648 73.088C87.0747 73.1307 87.5653 73.152 88.12 73.152C89.5707 73.152 90.808 72.7467 91.832 71.936C92.856 71.1253 93.752 69.8667 94.52 68.16ZM120.553 64V19.2H140.009C144.361 19.2 147.86 20.3947 150.505 22.784C153.15 25.1307 154.473 28.2453 154.473 32.128C154.473 36.0107 153.129 39.1467 150.441 41.536C147.796 43.9253 144.318 45.12 140.009 45.12H125.481V64H120.553ZM139.625 23.616H125.481V40.832H139.625C142.654 40.832 145.065 40.064 146.857 38.528C148.649 36.9493 149.545 34.8373 149.545 32.192C149.545 29.5467 148.649 27.456 146.857 25.92C145.065 24.384 142.654 23.616 139.625 23.616ZM157.435 47.936C157.435 45.632 157.862 43.456 158.715 41.408C159.568 39.36 160.72 37.5893 162.171 36.096C163.664 34.6027 165.414 33.4293 167.419 32.576C169.424 31.7227 171.558 31.296 173.819 31.296C176.08 31.296 178.192 31.7227 180.155 32.576C182.16 33.4293 183.888 34.6027 185.339 36.096C186.832 37.5893 188.006 39.36 188.859 41.408C189.712 43.456 190.139 45.632 190.139 47.936C190.139 50.2827 189.712 52.48 188.859 54.528C188.006 56.576 186.832 58.3467 185.339 59.84C183.888 61.3333 182.16 62.5067 180.155 63.36C178.192 64.2133 176.08 64.64 173.819 64.64C171.558 64.64 169.424 64.2133 167.419 63.36C165.414 62.5067 163.664 61.3333 162.171 59.84C160.72 58.3467 159.568 56.576 158.715 54.528C157.862 52.48 157.435 50.2827 157.435 47.936ZM173.819 60.416C175.44 60.416 176.955 60.096 178.363 59.456C179.814 58.816 181.051 57.9413 182.075 56.832C183.142 55.68 183.974 54.3573 184.571 52.864C185.168 51.328 185.467 49.6853 185.467 47.936C185.467 46.1867 185.168 44.5653 184.571 43.072C183.974 41.536 183.142 40.2133 182.075 39.104C181.051 37.9947 179.814 37.12 178.363 36.48C176.955 35.84 175.44 35.52 173.819 35.52C172.198 35.52 170.662 35.84 169.211 36.48C167.803 37.12 166.566 37.9947 165.499 39.104C164.475 40.2133 163.643 41.536 163.003 43.072C162.406 44.5653 162.107 46.1867 162.107 47.936C162.107 49.6853 162.406 51.328 163.003 52.864C163.6 54.3573 164.411 55.68 165.435 56.832C166.502 57.9413 167.76 58.816 169.211 59.456C170.662 60.096 172.198 60.416 173.819 60.416ZM196.72 77.12V31.936H201.392V35.392C202.757 34.0693 204.314 33.088 206.064 32.448C207.856 31.7653 209.754 31.424 211.76 31.424C214.021 31.424 216.133 31.8507 218.096 32.704C220.058 33.5573 221.765 34.7307 223.216 36.224C224.666 37.6747 225.797 39.424 226.608 41.472C227.461 43.4773 227.888 45.632 227.888 47.936C227.888 50.24 227.461 52.416 226.608 54.464C225.797 56.512 224.666 58.2827 223.216 59.776C221.765 61.2267 220.037 62.3787 218.032 63.232C216.069 64.0853 213.957 64.512 211.696 64.512C209.818 64.512 208.005 64.192 206.256 63.552C204.506 62.912 202.906 61.9947 201.456 60.8V77.12H196.72ZM211.312 35.584C209.306 35.584 207.429 35.9893 205.68 36.8C203.973 37.568 202.565 38.656 201.456 40.064V55.936C202.565 57.3013 203.994 58.3893 205.744 59.2C207.493 59.968 209.349 60.352 211.312 60.352C214.682 60.352 217.498 59.1787 219.76 56.832C222.064 54.4427 223.216 51.4987 223.216 48C223.216 46.2507 222.896 44.6293 222.256 43.136C221.658 41.6 220.826 40.2773 219.76 39.168C218.693 38.0587 217.434 37.184 215.984 36.544C214.533 35.904 212.976 35.584 211.312 35.584Z" fill="white"/>
<path d="M159.703 54L162.239 58.3933L142.733 69.6553C141.52 70.3557 139.969 69.9401 139.268 68.7269V68.7269C138.568 67.5137 138.983 65.9624 140.197 65.2619L159.703 54Z" fill="white"/>
<path fill-rule="evenodd" clip-rule="evenodd" d="M169.34 46.0012C170.168 46.0012 170.84 45.3293 170.84 44.5006C170.84 43.6718 170.168 43 169.34 43C168.511 43 167.839 43.6718 167.839 44.5006C167.839 45.3293 168.511 46.0012 169.34 46.0012ZM167.033 49.3723C167.327 48.0307 167.972 46.3926 169.372 46.3926C170.773 46.3926 171.418 48.0307 171.711 49.3723C171.914 50.2967 171.159 51.0901 170.213 51.0901H168.531C167.585 51.0901 166.831 50.2967 167.033 49.3723Z" fill="white"/>
<path fill-rule="evenodd" clip-rule="evenodd" d="M177.942 46.0012C178.771 46.0012 179.443 45.3293 179.443 44.5006C179.443 43.6718 178.771 43 177.942 43C177.114 43 176.442 43.6718 176.442 44.5006C176.442 45.3293 177.114 46.0012 177.942 46.0012ZM175.636 49.3723C175.929 48.0307 176.574 46.3926 177.975 46.3926C179.376 46.3926 180.021 48.0307 180.314 49.3723C180.516 50.2967 179.762 51.0901 178.816 51.0901H177.134C176.188 51.0901 175.434 50.2967 175.636 49.3723Z" fill="white"/>
<path fill-rule="evenodd" clip-rule="evenodd" d="M173.638 47.6112C174.642 47.6112 175.455 46.7978 175.455 45.7944C175.455 44.791 174.642 43.9776 173.638 43.9776C172.635 43.9776 171.821 44.791 171.821 45.7944C171.821 46.7978 172.635 47.6112 173.638 47.6112ZM170.855 51.6516C171.214 50.0352 171.996 48.0852 173.678 48.0852C175.359 48.0852 176.141 50.0352 176.501 51.6516C176.754 52.7927 175.822 53.7726 174.653 53.7726H172.702C171.533 53.7726 170.601 52.7927 170.855 51.6516Z" fill="white"/>
</g>
<defs>
<clipPath id="clip0">
<rect width="231" height="82" fill="white"/>
</clipPath>
</defs>
</svg>
