<svg width="40" height="40" viewBox="0 0 40 40" fill="none" xmlns="http://www.w3.org/2000/svg">
<g clip-path="url(#clip0)">
<path fill-rule="evenodd" clip-rule="evenodd" d="M14.8974 28.7841C19.2624 33.523 26.4739 34.7831 32.2869 31.427C39.0212 27.5389 41.3286 18.9278 37.4405 12.1935C33.5525 5.45923 24.9413 3.15189 18.207 7.03993C12.394 10.3961 9.87958 17.2714 11.8011 23.421L3.17327 28.4023C1.6923 29.2573 1.18488 31.151 2.03992 32.632C2.89496 34.113 4.78868 34.6204 6.26965 33.7654L14.8974 28.7841ZM16.8761 24.0664C14.207 19.4433 15.791 13.5317 20.4141 10.8626C25.0372 8.19344 30.9487 9.77743 33.6179 14.4005C36.287 19.0236 34.703 24.9352 30.0799 27.6043C25.4568 30.2735 19.5453 28.6895 16.8761 24.0664Z" fill="black"/>
</g>
<defs>
<clipPath id="clip0">
<rect width="40" height="40" fill="white"/>
</clipPath>
</defs>
</svg>
